<?xml version="1.0" standalone="no"?>
<!DOCTYPE svg PUBLIC "-//W3C//DTD SVG 20010904//EN"
 "http://www.w3.org/TR/2001/REC-SVG-20010904/DTD/svg10.dtd">
<svg version="1.0" xmlns="http://www.w3.org/2000/svg"
 width="400.000000pt" height="400.000000pt" viewBox="0 0 400.000000 400.000000"
 preserveAspectRatio="xMidYMid meet">
<metadata>
Created by potrace 1.15, written by Peter Selinger 2001-2017
</metadata>
<g transform="translate(0.000000,400.000000) scale(0.100000,-0.100000)"
fill="#000000" stroke="none">
<path d="M2608 3657 l-58 -21 0 -53 c0 -29 -3 -53 -6 -53 -4 0 -29 14 -56 31
l-50 30 -64 -23 -63 -23 -3 -92 -3 -93 -89 54 -90 53 -102 -34 -103 -34 -4
-67 c-2 -49 -4 -39 -5 39 l-2 106 -140 87 c-77 47 -143 86 -147 86 -5 0 -32
-10 -60 -22 l-53 -23 0 -132 0 -131 51 19 c28 11 54 18 57 15 2 -3 -8 -10 -24
-16 -16 -6 -41 -15 -56 -21 l-28 -11 0 -129 0 -128 55 19 c30 10 55 15 55 11
0 -4 -25 -15 -55 -25 l-55 -17 0 -139 0 -138 53 14 c62 16 57 16 57 6 0 -5
-25 -14 -55 -21 l-55 -12 0 -128 0 -128 60 10 60 10 0 123 0 123 23 -8 c27
-10 36 -58 13 -67 -12 -5 -16 -20 -16 -59 l0 -52 298 73 c163 40 403 99 533
130 l236 57 56 -34 c31 -18 53 -36 49 -40 -4 -3 -27 -11 -52 -17 -40 -10 -48
-8 -90 15 l-47 26 -166 -38 -167 -39 6 -31 c4 -24 -13 -79 -81 -248 -48 -119
-91 -217 -95 -217 -7 0 52 158 134 359 39 97 34 151 -14 121 -8 -5 -53 -113
-101 -241 -47 -128 -89 -227 -93 -221 -3 5 32 109 78 229 46 120 80 219 76
221 -5 2 -23 -1 -42 -5 -23 -6 -38 -19 -50 -42 -9 -18 -18 -35 -21 -38 -6 -5
-213 -53 -233 -53 -8 0 -14 6 -14 13 0 22 -16 38 -32 32 -14 -6 -10 -25 28
-138 24 -72 44 -136 44 -141 0 -28 -22 22 -60 139 -24 72 -44 132 -47 134 -2
3 -9 -1 -15 -7 -8 -8 -9 -21 -1 -47 6 -19 8 -35 4 -35 -4 0 -13 18 -20 40 -9
31 -16 40 -29 36 -9 -3 -29 -8 -44 -12 -26 -6 -28 -10 -28 -59 0 -30 5 -57 10
-60 6 -4 8 -21 4 -40 -5 -27 -2 -37 15 -51 14 -13 21 -30 21 -55 0 -35 -2 -37
-42 -47 -23 -6 -44 -9 -47 -6 -2 2 1 4 7 4 9 0 12 38 12 131 l0 131 -30 -6
c-16 -3 -43 -9 -60 -12 l-30 -6 0 -129 0 -130 48 5 c33 4 41 3 27 -3 -11 -5
-32 -10 -47 -10 -16 -1 -28 -6 -28 -12 0 -5 -5 -7 -11 -4 -6 4 -30 4 -54 1
-38 -6 -44 -11 -48 -34 l-4 -27 -2 29 c-1 21 -5 27 -17 22 -9 -3 -27 -6 -40
-6 -22 0 -24 -4 -26 -52 l-2 -53 -3 48 c-4 44 -6 47 -31 47 -43 0 -51 -12 -55
-80 -2 -36 -4 21 -5 127 l-2 191 -47 16 c-25 9 -47 15 -49 13 -1 -1 -9 -25
-17 -53 l-15 -51 54 -54 c39 -38 54 -61 54 -80 0 -52 -8 -59 -69 -59 -31 0
-62 -5 -69 -12 -7 -7 -12 -31 -12 -55 0 -40 3 -46 45 -75 l46 -33 -25 -18
c-13 -9 -35 -27 -48 -38 l-23 -20 62 5 c35 3 63 3 63 0 0 -18 -59 -84 -90
-100 -31 -17 -35 -24 -38 -64 -3 -42 -1 -46 28 -57 l30 -11 0 -97 c0 -87 -2
-99 -25 -129 -22 -28 -24 -39 -19 -80 5 -30 14 -52 25 -59 18 -11 19 -28 19
-222 l0 -211 -30 -11 c-64 -24 -47 -112 28 -146 61 -26 179 -20 222 12 17 12
44 21 66 21 33 0 36 -2 29 -22 -19 -58 -17 -107 6 -147 l23 -41 73 0 73 0 0
-55 c0 -54 1 -55 40 -75 26 -13 59 -20 99 -20 56 0 61 -2 67 -25 6 -25 7 -25
120 -25 93 0 116 -3 120 -15 5 -12 29 -15 125 -15 110 0 119 1 133 22 9 12 16
39 16 60 l0 38 63 0 c53 1 68 5 101 30 22 17 49 30 60 30 33 1 102 36 120 61
9 13 16 35 16 48 0 14 10 35 22 48 l22 23 -23 73 c-13 39 -26 78 -28 85 -4 9
15 12 75 12 l79 0 17 43 c24 64 20 85 -34 172 -53 85 -61 110 -32 101 28 -8
127 -10 140 -2 7 4 12 31 12 66 0 57 -2 61 -54 123 -49 57 -54 68 -47 93 7 28
9 29 79 32 l72 3 0 68 0 68 -60 46 c-57 45 -60 49 -60 91 l0 44 70 12 70 12 0
72 0 71 -75 29 c-75 29 -75 29 -75 66 0 36 1 37 70 65 l70 28 0 74 0 74 -79
38 -79 38 56 56 c53 53 56 59 60 114 l4 59 -92 51 c-50 28 -88 53 -83 56 4 2
38 10 76 18 l67 13 0 63 c0 62 0 62 -40 85 l-40 23 0 340 0 340 -78 41 -77 42
-57 -21z m122 -72 l50 -25 0 -310 0 -310 -25 16 c-17 11 -36 14 -55 10 l-30
-5 0 324 c0 179 2 325 5 325 3 0 28 -11 55 -25z m-462 -400 c3 -170 -1 -181
-85 -209 -43 -15 -46 -15 -80 8 l-35 24 39 12 c64 21 63 17 63 201 l0 168 48
-27 47 -28 3 -149z m-353 -190 l0 -229 -50 -13 c-27 -7 -56 -13 -62 -13 -10 0
-13 62 -13 276 l0 276 63 -34 62 -35 0 -228z m590 75 c37 -63 70 -118 72 -122
2 -4 -22 -15 -54 -23 -32 -9 -66 -19 -75 -21 -17 -5 -18 6 -18 142 0 81 2 145
4 143 2 -2 34 -56 71 -119z m-202 -200 c-7 -6 -132 -40 -148 -40 -3 0 -5 20
-5 44 0 44 1 44 47 60 54 18 102 60 105 90 1 12 4 -17 5 -63 2 -46 0 -87 -4
-91z m82 -415 c23 -87 52 -301 42 -311 -3 -3 -51 10 -108 29 -148 49 -147 47
-76 223 30 76 63 157 72 179 l17 39 15 -34 c8 -19 25 -75 38 -125z m436 83
c32 -18 59 -36 59 -39 0 -3 -22 -25 -50 -48 l-49 -41 -60 33 -60 33 47 47 c26
26 48 47 50 47 2 0 30 -15 63 -32z m-762 -30 c-12 -29 -30 -77 -41 -105 -15
-42 -24 -53 -41 -53 -55 0 -64 9 -87 87 -12 41 -20 76 -19 77 5 4 178 44 196
45 9 1 6 -15 -8 -51z m470 -558 l51 -85 0 -305 0 -305 68 -45 67 -45 -67 -3
-67 -3 -4 -117 c-1 -64 -4 92 -5 347 l-2 463 -47 84 c-27 46 -51 84 -55 84 -4
0 -28 -38 -53 -85 -26 -47 -51 -87 -56 -91 -15 -9 82 169 99 183 9 7 17 12 18
10 1 -1 25 -40 53 -87z m-465 44 c3 -9 6 -35 6 -58 l0 -43 48 4 c199 17 239
18 235 7 -5 -13 -47 -20 -191 -30 -89 -6 -92 -7 -98 -33 -3 -14 -10 -40 -15
-58 -9 -27 4 -73 106 -364 64 -183 114 -340 113 -348 -2 -9 -54 131 -117 309
-63 179 -117 329 -122 334 -4 4 -15 -6 -24 -25 -15 -28 -19 -30 -27 -16 -7 13
-1 37 18 85 23 56 28 82 28 159 1 79 3 93 17 93 9 0 20 -7 23 -16z m-704 -103
l0 -49 43 5 c23 2 90 7 149 11 88 6 105 5 95 -5 -8 -8 -66 -17 -152 -24 -77
-6 -141 -12 -143 -14 -8 -8 21 -279 39 -367 29 -141 107 -358 128 -358 4 0 16
18 26 40 10 22 21 40 25 40 5 0 -4 -22 -19 -50 -24 -46 -25 -52 -11 -77 8 -14
20 -28 27 -30 7 -3 27 26 47 64 43 84 47 69 6 -22 -34 -76 -33 -81 32 -142
112 -102 254 -144 373 -109 11 4 0 -4 -25 -16 -70 -35 -176 -32 -255 6 -246
120 -424 542 -425 1009 0 130 1 137 20 137 17 0 20 -7 20 -49z m325 -106 c-8
-68 -3 -73 134 -130 55 -24 115 -52 135 -64 80 -50 124 -133 113 -214 -4 -31
4 -63 38 -148 25 -60 50 -136 57 -170 15 -73 5 -98 -60 -143 -37 -27 -51 -30
-110 -30 -83 1 -142 26 -206 84 -40 37 -46 48 -46 84 0 54 6 61 64 75 146 36
236 133 236 256 0 36 -6 65 -17 82 -25 38 -121 97 -210 128 -120 43 -141 55
-163 90 -31 51 -21 116 24 147 18 13 19 10 11 -47z m759 -27 c-9 -137 -25
-263 -46 -350 -11 -49 -22 -88 -24 -88 -2 0 -4 115 -4 255 l0 255 39 0 40 0
-5 -72z m-104 -250 c0 -183 -4 -308 -9 -302 -5 5 -37 94 -70 197 l-62 188 20
52 c10 29 25 81 31 115 l13 62 38 0 39 0 0 -312z m-473 219 c44 -23 133 -109
133 -129 0 -4 -16 3 -35 16 -19 13 -76 40 -127 60 -98 38 -138 60 -138 78 0
19 113 2 167 -25z m-201 -116 l27 -21 -24 -48 c-27 -53 -36 -62 -62 -62 -16 0
-18 5 -12 33 3 17 11 42 17 54 6 13 8 26 4 30 -12 12 -33 -23 -40 -67 -3 -21
-11 -42 -16 -45 -13 -8 -13 31 1 57 14 26 1 38 -16 15 -10 -14 -14 -15 -18 -5
-9 22 -37 -22 -37 -58 0 -17 -7 -37 -15 -44 -21 -17 -19 -41 4 -47 11 -3 25
-19 31 -37 10 -27 13 -29 19 -12 7 19 8 18 15 -5 l8 -24 8 30 c8 29 8 29 15 7
5 -14 13 -21 21 -18 22 8 17 -51 -5 -73 -11 -11 -22 -17 -25 -14 -3 3 -12 1
-20 -6 -11 -10 -18 -6 -34 17 -90 125 -73 300 39 410 l43 42 23 -44 c12 -24
34 -54 49 -65z m344 -256 c0 -46 -19 -81 -66 -125 l-38 -35 36 41 c36 42 66
110 53 122 -4 4 -10 2 -12 -5 -2 -6 -18 -32 -35 -57 -35 -53 -100 -96 -147
-96 l-32 0 42 49 c23 27 47 64 53 83 7 22 18 34 32 36 18 3 21 -1 17 -25 -4
-27 -4 -27 11 -9 9 11 16 24 16 28 0 9 36 26 58 27 7 1 12 -12 12 -34z m735
-295 c25 -39 45 -73 45 -76 0 -3 -28 -4 -62 -2 l-62 3 -33 73 -32 72 49 0 50
0 45 -70z m-1538 -40 l55 0 -5 -32 c-19 -105 -13 -98 -78 -98 l-59 0 1 108 1
107 15 -42 15 -43 55 0z m1348 -331 c7 -7 1 -8 -20 -2 -48 13 -138 7 -173 -11
-28 -15 -33 -22 -30 -49 2 -23 10 -35 30 -45 66 -31 185 -23 223 15 12 11 15
26 11 45 -7 38 15 33 29 -6 18 -52 -38 -95 -135 -103 -98 -9 -200 34 -200 86
0 26 41 60 91 77 48 15 156 11 174 -7z m-335 -173 c0 -7 7 -19 15 -26 18 -15
29 -71 20 -99 -6 -18 -14 -21 -71 -21 l-64 0 0 80 0 80 50 0 c36 0 50 -4 50
-14z"/>
<path d="M1438 3569 l-38 -19 0 -125 0 -125 48 19 47 19 3 126 c3 140 3 139
-60 105z"/>
<path d="M1343 3523 l-33 -17 0 -119 c0 -105 2 -118 16 -113 9 3 27 9 40 12
24 6 24 8 24 130 0 68 -3 124 -7 123 -5 0 -23 -8 -40 -16z"/>
<path d="M1253 3483 l-33 -17 0 -113 c0 -62 4 -113 9 -113 4 0 22 5 40 11 l31
11 0 119 c0 65 -3 119 -7 118 -5 0 -23 -8 -40 -16z"/>
<path d="M1438 3303 l-38 -16 0 -124 0 -125 25 6 c79 20 75 12 75 151 0 137 2
134 -62 108z"/>
<path d="M1343 3268 l-33 -11 0 -123 c0 -68 4 -124 9 -124 4 0 22 5 40 11 l31
11 0 124 c0 68 -3 124 -7 123 -5 -1 -23 -6 -40 -11z"/>
<path d="M1260 3236 l-35 -13 -3 -121 c-1 -67 1 -122 6 -122 5 0 23 5 41 11
l31 11 0 124 c0 68 -1 124 -2 123 -2 0 -19 -6 -38 -13z"/>
<path d="M1440 3036 l-35 -13 -3 -131 c-3 -145 -5 -140 61 -121 l37 10 0 134
c0 147 2 143 -60 121z"/>
<path d="M1333 3000 c-22 -9 -23 -14 -23 -135 0 -136 -1 -134 58 -119 21 6 22
10 22 135 0 140 -1 142 -57 119z"/>
<path d="M1260 2976 l-35 -13 -3 -127 c-3 -124 -2 -127 18 -122 11 3 29 9 40
12 19 5 20 14 20 135 0 71 -1 129 -2 128 -2 0 -19 -6 -38 -13z"/>
<path d="M1433 2749 l-33 -10 0 -119 0 -120 28 0 c73 0 72 -1 72 136 0 137 2
133 -67 113z"/>
<path d="M1343 2729 l-33 -10 0 -121 0 -120 31 6 c17 3 35 6 40 6 5 0 9 56 9
125 0 69 -3 125 -7 124 -5 0 -23 -5 -40 -10z"/>
<path d="M1258 2707 l-38 -9 0 -118 0 -119 38 6 c20 3 38 7 40 8 1 1 1 56 0
122 l-3 119 -37 -9z"/>
<path d="M1418 2483 c-16 -4 -18 -19 -18 -132 l0 -128 28 4 c79 12 72 0 72
138 l0 125 -32 -1 c-18 -1 -41 -3 -50 -6z"/>
<path d="M1350 2470 l-35 -5 -3 -128 -3 -128 38 7 c21 4 39 8 41 9 1 1 1 58 0
126 l-3 124 -35 -5z"/>
<path d="M1243 2453 c-22 -4 -23 -8 -23 -129 l0 -124 24 0 c55 0 56 3 56 136
0 135 3 129 -57 117z"/>
</g>
</svg>
